<svg width="24" height="25" viewBox="0 0 24 25" fill="none" xmlns="http://www.w3.org/2000/svg">
<path d="M19.4167 17.6707C18.4456 17.6707 17.5767 18.0472 16.9122 18.6371L7.80167 13.4287C7.86556 13.1401 7.91667 12.8514 7.91667 12.5502C7.91667 12.249 7.86556 11.9603 7.80167 11.6717L16.81 6.51356C17.5 7.14107 18.4072 7.53012 19.4167 7.53012C21.5378 7.53012 23.25 5.84839 23.25 3.76506C23.25 1.68173 21.5378 0 19.4167 0C17.2956 0 15.5833 1.68173 15.5833 3.76506C15.5833 4.06627 15.6344 4.35492 15.6983 4.64357L6.69 9.80171C6 9.1742 5.09278 8.78514 4.08333 8.78514C1.96222 8.78514 0.25 10.4669 0.25 12.5502C0.25 14.6335 1.96222 16.3153 4.08333 16.3153C5.09278 16.3153 6 15.9262 6.69 15.2987L15.7878 20.5196C15.7239 20.7831 15.6856 21.0592 15.6856 21.3353C15.6856 23.3559 17.3594 25 19.4167 25C21.4739 25 23.1478 23.3559 23.1478 21.3353C23.1478 19.3148 21.4739 17.6707 19.4167 17.6707ZM19.4167 2.51004C20.1194 2.51004 20.6944 3.0748 20.6944 3.76506C20.6944 4.45532 20.1194 5.02008 19.4167 5.02008C18.7139 5.02008 18.1389 4.45532 18.1389 3.76506C18.1389 3.0748 18.7139 2.51004 19.4167 2.51004ZM4.08333 13.8052C3.38056 13.8052 2.80556 13.2405 2.80556 12.5502C2.80556 11.8599 3.38056 11.2952 4.08333 11.2952C4.78611 11.2952 5.36111 11.8599 5.36111 12.5502C5.36111 13.2405 4.78611 13.8052 4.08333 13.8052ZM19.4167 22.6155C18.7139 22.6155 18.1389 22.0507 18.1389 21.3604C18.1389 20.6702 18.7139 20.1054 19.4167 20.1054C20.1194 20.1054 20.6944 20.6702 20.6944 21.3604C20.6944 22.0507 20.1194 22.6155 19.4167 22.6155Z" fill="white"/>
</svg>
